<svg width="21" height="20" viewBox="0 0 21 20" fill="none" xmlns="http://www.w3.org/2000/svg">
<path d="M10.6643 6.66525C8.8281 6.66525 7.32961 8.16376 7.32961 10C7.32961 11.8362 8.8281 13.3348 10.6643 13.3348C12.5005 13.3348 13.999 11.8362 13.999 10C13.999 8.16376 12.5005 6.66525 10.6643 6.66525ZM20.6659 10C20.6659 8.61907 20.6784 7.25064 20.6008 5.87221C20.5233 4.27113 20.158 2.85017 18.9873 1.67938C17.814 0.506085 16.3956 0.14334 14.7945 0.065788C13.4136 -0.0117644 12.0452 0.000744113 10.6668 0.000744113C9.2859 0.000744113 7.9175 -0.0117644 6.53909 0.065788C4.93804 0.14334 3.51711 0.508587 2.34634 1.67938C1.17307 2.85267 0.81033 4.27113 0.732779 5.87221C0.655228 7.25314 0.667736 8.62157 0.667736 10C0.667736 11.3784 0.655228 12.7494 0.732779 14.1278C0.81033 15.7289 1.17557 17.1498 2.34634 18.3206C3.51961 19.4939 4.93804 19.8567 6.53909 19.9342C7.92 20.0118 9.2884 19.9993 10.6668 19.9993C12.0477 19.9993 13.4161 20.0118 14.7945 19.9342C16.3956 19.8567 17.8165 19.4914 18.9873 18.3206C20.1605 17.1473 20.5233 15.7289 20.6008 14.1278C20.6809 12.7494 20.6659 11.3809 20.6659 10ZM10.6643 15.131C7.82494 15.131 5.53343 12.8394 5.53343 10C5.53343 7.16058 7.82494 4.86903 10.6643 4.86903C13.5037 4.86903 15.7952 7.16058 15.7952 10C15.7952 12.8394 13.5037 15.131 10.6643 15.131ZM16.0053 5.8572C15.3424 5.8572 14.807 5.32184 14.807 4.65889C14.807 3.99594 15.3424 3.46058 16.0053 3.46058C16.6682 3.46058 17.2036 3.99594 17.2036 4.65889C17.2038 4.81631 17.1729 4.97222 17.1128 5.1177C17.0526 5.26317 16.9644 5.39535 16.8531 5.50666C16.7418 5.61798 16.6096 5.70624 16.4641 5.76639C16.3186 5.82654 16.1627 5.8574 16.0053 5.8572Z" fill="#5A5A5A"/>
</svg>
