<svg width="21" height="20" viewBox="0 0 21 20" fill="none" xmlns="http://www.w3.org/2000/svg">
<g clip-path="url(#clip0_611_1370)">
<path d="M10.333 0.3125C4.80881 0.3125 0.333008 4.64844 0.333008 10C0.333008 15.3516 4.80881 19.6875 10.333 19.6875C15.8572 19.6875 20.333 15.3516 20.333 10C20.333 4.64844 15.8572 0.3125 10.333 0.3125ZM15.2443 6.94922L13.6032 14.4414C13.4822 14.9727 13.1556 15.1016 12.6999 14.8516L10.1999 13.0664L8.9943 14.1914C8.86123 14.3203 8.74833 14.4297 8.49027 14.4297L8.66768 11.9648L13.3007 7.91016C13.5024 7.73828 13.2564 7.64062 12.9903 7.8125L7.26446 11.3047L4.79672 10.5586C4.26043 10.3945 4.24833 10.0391 4.90962 9.78906L14.5507 6.1875C14.9983 6.03125 15.3895 6.29297 15.2443 6.94922Z" fill="#5A5A5A"/>
</g>
<defs>
<clipPath id="clip0_611_1370">
<rect width="20" height="20" fill="white" transform="translate(0.333008)"/>
</clipPath>
</defs>
</svg>
